<svg width="49" height="48" viewBox="0 0 49 48" fill="none" xmlns="http://www.w3.org/2000/svg">
<path fill-rule="evenodd" clip-rule="evenodd" d="M3.66602 6C3.66602 3.79086 5.45688 2 7.66602 2H31.666C33.8752 2 35.666 3.79086 35.666 6V21.0352C35.3357 21.0119 35.0022 21 34.666 21C33.6363 21 32.6325 21.1112 31.666 21.3222V20H15.666V23H27.4508C24.7915 24.6024 22.7083 27.0638 21.5853 30H15.666V33H20.8078C20.7144 33.6532 20.666 34.321 20.666 35C20.666 37.1472 21.1494 39.1815 22.0133 41H7.66602C5.45688 41 3.66602 39.2091 3.66602 37V6ZM10.166 14C11.5467 14 12.666 12.8807 12.666 11.5C12.666 10.1193 11.5467 9 10.166 9C8.7853 9 7.66602 10.1193 7.66602 11.5C7.66602 12.8807 8.7853 14 10.166 14ZM10.166 24C11.5467 24 12.666 22.8807 12.666 21.5C12.666 20.1193 11.5467 19 10.166 19C8.7853 19 7.66602 20.1193 7.66602 21.5C7.66602 22.8807 8.7853 24 10.166 24ZM12.666 31.5C12.666 32.8807 11.5467 34 10.166 34C8.7853 34 7.66602 32.8807 7.66602 31.5C7.66602 30.1193 8.7853 29 10.166 29C11.5467 29 12.666 30.1193 12.666 31.5ZM31.666 10H15.666V13H31.666V10Z" fill="#E29578"/>
<path fill-rule="evenodd" clip-rule="evenodd" d="M45.666 35C45.666 41.0751 40.7411 46 34.666 46C28.5909 46 23.666 41.0751 23.666 35C23.666 28.9249 28.5909 24 34.666 24C37.1631 24 39.4658 24.8321 41.3121 26.234C42.112 26.8413 42.8264 27.5553 43.4336 28.3552C44.8348 30.2012 45.666 32.5037 45.666 35ZM39.1633 28.3828C37.8817 27.5101 36.3335 27 34.666 27C30.2477 27 26.666 30.5817 26.666 35C26.666 36.6674 27.1761 38.2157 28.0489 39.4973L39.1633 28.3828ZM30.1705 41.6183C31.4517 42.4903 32.9993 43 34.666 43C39.0843 43 42.666 39.4183 42.666 35C42.666 33.3333 42.1563 31.7857 41.2844 30.5044L30.1705 41.6183Z" fill="#02363D"/>
</svg>
