<svg width="32" height="32" viewBox="0 0 32 32" fill="none" xmlns="http://www.w3.org/2000/svg">
<g clip-path="url(#clip0_919_1353)">
<path d="M17 10.068V12.268L18.906 11.168L19.906 12.902L18 14L19.906 15.1L18.906 16.832L17 15.732V17.932H15V15.732L13.094 16.832L12.094 15.1L14 14L12.094 12.9L13.094 11.168L15 12.268V10.068H17ZM26.5 18C26.3674 18 26.2402 18.0527 26.1464 18.1464C26.0527 18.2402 26 18.3674 26 18.5V19.5C26 19.776 26.224 20 26.5 20H27.5C27.6326 20 27.7598 19.9473 27.8536 19.8535C27.9473 19.7598 28 19.6326 28 19.5V18.5C28 18.3674 27.9473 18.2402 27.8536 18.1464C27.7598 18.0527 27.6326 18 27.5 18H26.5ZM26 22.5C26 22.3674 26.0527 22.2402 26.1464 22.1464C26.2402 22.0527 26.3674 22 26.5 22H27.5C27.6326 22 27.7598 22.0527 27.8536 22.1464C27.9473 22.2402 28 22.3674 28 22.5V23.5C28 23.6326 27.9473 23.7598 27.8536 23.8535C27.7598 23.9473 27.6326 24 27.5 24H26.5C26.3674 24 26.2402 23.9473 26.1464 23.8535C26.0527 23.7598 26 23.6326 26 23.5V22.5ZM26.5 26C26.3674 26 26.2402 26.0527 26.1464 26.1464C26.0527 26.2402 26 26.3674 26 26.5V27.5C26 27.776 26.224 28 26.5 28H27.5C27.6326 28 27.7598 27.9473 27.8536 27.8535C27.9473 27.7598 28 27.6326 28 27.5V26.5C28 26.3674 27.9473 26.2402 27.8536 26.1464C27.7598 26.0527 27.6326 26 27.5 26H26.5ZM4.5 18C4.36739 18 4.24021 18.0527 4.14645 18.1464C4.05268 18.2402 4 18.3674 4 18.5V19.5C4 19.776 4.224 20 4.5 20H5.5C5.63261 20 5.75979 19.9473 5.85355 19.8535C5.94732 19.7598 6 19.6326 6 19.5V18.5C6 18.3674 5.94732 18.2402 5.85355 18.1464C5.75979 18.0527 5.63261 18 5.5 18H4.5ZM4.5 22C4.36739 22 4.24021 22.0527 4.14645 22.1464C4.05268 22.2402 4 22.3674 4 22.5V23.5C4 23.776 4.224 24 4.5 24H5.5C5.63261 24 5.75979 23.9473 5.85355 23.8535C5.94732 23.7598 6 23.6326 6 23.5V22.5C6 22.3674 5.94732 22.2402 5.85355 22.1464C5.75979 22.0527 5.63261 22 5.5 22H4.5ZM4 26.5C4 26.3674 4.05268 26.2402 4.14645 26.1464C4.24021 26.0527 4.36739 26 4.5 26H5.5C5.63261 26 5.75979 26.0527 5.85355 26.1464C5.94732 26.2402 6 26.3674 6 26.5V27.5C6 27.6326 5.94732 27.7598 5.85355 27.8535C5.75979 27.9473 5.63261 28 5.5 28H4.5C4.36739 28 4.24021 27.9473 4.14645 27.8535C4.05268 27.7598 4 27.6326 4 27.5V26.5Z" fill="#176F6F"/>
<path d="M10 2C10 1.46957 10.2107 0.960859 10.5858 0.585786C10.9609 0.210714 11.4696 0 12 0L20 0C20.5304 0 21.0391 0.210714 21.4142 0.585786C21.7893 0.960859 22 1.46957 22 2V4C22.5304 4 23.0391 4.21071 23.4142 4.58579C23.7893 4.96086 24 5.46957 24 6V14H30C30.5304 14 31.0391 14.2107 31.4142 14.5858C31.7893 14.9609 32 15.4696 32 16V30C32 30.5304 31.7893 31.0391 31.4142 31.4142C31.0391 31.7893 30.5304 32 30 32H2C1.46957 32 0.960859 31.7893 0.585786 31.4142C0.210714 31.0391 0 30.5304 0 30V16C0 15.4696 0.210714 14.9609 0.585786 14.5858C0.960859 14.2107 1.46957 14 2 14H8V6C8 5.46957 8.21071 4.96086 8.58579 4.58579C8.96086 4.21071 9.46957 4 10 4V2ZM14 30H18V24H14V30ZM20 30H22V6H10V30H12V24C12 23.4696 12.2107 22.9609 12.5858 22.5858C12.9609 22.2107 13.4696 22 14 22H18C18.5304 22 19.0391 22.2107 19.4142 22.5858C19.7893 22.9609 20 23.4696 20 24V30ZM20 2H12V4H20V2ZM24 16V30H30V16H24ZM8 30V16H2V30H8Z" fill="#176F6F"/>
</g>
<defs>
<clipPath id="clip0_919_1353">
<rect width="32" height="32" fill="white"/>
</clipPath>
</defs>
</svg>
