<svg width="49" height="48" viewBox="0 0 49 48" fill="none" xmlns="http://www.w3.org/2000/svg">
<path fill-rule="evenodd" clip-rule="evenodd" d="M46.666 37C46.666 43.0751 41.7411 48 35.666 48C29.5909 48 24.666 43.0751 24.666 37C24.666 30.9249 29.5909 26 35.666 26C41.7411 26 46.666 30.9249 46.666 37ZM29.666 37C29.666 36.1716 30.3376 35.5 31.166 35.5H34.166V32.5C34.166 31.6716 34.8376 31 35.666 31C36.4944 31 37.166 31.6716 37.166 32.5V35.5H40.166C40.9944 35.5 41.666 36.1716 41.666 37C41.666 37.8284 40.9944 38.5 40.166 38.5H37.166V41.5C37.166 42.3284 36.4944 43 35.666 43C34.8376 43 34.166 42.3284 34.166 41.5V38.5H31.166C30.3376 38.5 29.666 37.8284 29.666 37Z" fill="#02363D"/>
<path d="M19.9465 0C17.0821 0 14.3351 1.13785 12.3097 3.16325C10.2843 5.18864 9.14648 7.93566 9.14648 10.8C9.14648 13.6643 10.2843 16.4114 12.3097 18.4368C14.3351 20.4621 17.0821 21.6 19.9465 21.6C22.8108 21.6 25.5578 20.4621 27.5832 18.4368C29.6086 16.4114 30.7465 13.6643 30.7465 10.8C30.7465 7.93566 29.6086 5.18864 27.5832 3.16325C25.5578 1.13785 22.8108 0 19.9465 0Z" fill="#E29578"/>
<path d="M27.1073 25.92H6.96334C4.59382 25.92 2.66602 27.8478 2.66602 30.2173V31.86C2.66602 35.437 4.70182 38.5301 8.39757 40.568C11.4723 42.2658 15.5742 43.2 19.946 43.2C20.9707 43.2 22.005 43.1462 23.0311 43.0373C22.156 41.2093 21.666 39.1619 21.666 37C21.666 32.4914 23.7973 28.4806 27.1073 25.92Z" fill="#E29578"/>
</svg>
