<svg width="48" height="48" viewBox="0 0 48 48" fill="none" xmlns="http://www.w3.org/2000/svg">
<path fill-rule="evenodd" clip-rule="evenodd" d="M17.3909 34.0437C17.5884 34.4003 17.7954 34.7407 18.0109 35.0638C18.8946 36.3894 19.8644 37.3577 20.8578 38.0021C20.4368 36.7763 20.0723 35.3095 19.7803 33.6601C21.8799 33.2852 24.0806 32.7958 26.3292 32.1933C28.2532 31.6778 30.1055 31.108 31.8567 30.5H32.0801C32.0888 30.471 32.0974 30.442 32.106 30.4129C33.2905 29.9969 34.4276 29.5635 35.508 29.1177C35.4155 29.5868 35.3105 30.0478 35.1937 30.5H37.5223C37.9396 29.6336 38.276 28.7209 38.5218 27.7718C39.5104 27.2927 40.4292 26.8057 41.2682 26.3164C41.4819 26.1917 41.6915 26.0663 41.8967 25.9402C41.7261 27.5313 41.3483 29.0605 40.7906 30.5C40.3946 31.5221 39.9081 32.4991 39.3407 33.421L39.2918 33.5C36.1146 38.6033 30.454 42 24 42C18.0003 42 12.6862 39.0646 9.41544 34.5517C9.75424 34.5646 10.1004 34.5717 10.4532 34.5732C11.3382 34.5772 12.2797 34.5462 13.2689 34.4806C13.8352 35.0604 14.4482 35.5945 15.1017 36.0768C14.7828 35.5485 14.4845 34.9916 14.2088 34.4091C15.2273 34.3218 16.2909 34.2 17.3909 34.0437ZM35.6088 33.5H34.1945C33.8138 34.4173 33.3795 35.2795 32.8983 36.0768C33.9055 35.3335 34.8164 34.4671 35.6088 33.5ZM30.8965 33.5H28.2477C27.9512 35.2147 27.5767 36.7368 27.1422 38.0021C28.1356 37.3577 29.1054 36.3894 29.9891 35.0638C30.3117 34.5799 30.6154 34.0574 30.8965 33.5ZM24.645 35.925C24.8482 35.1933 25.0345 34.3812 25.1996 33.5H22.8004C22.9655 34.3812 23.1518 35.1933 23.355 35.925C23.5684 36.693 23.7881 37.3271 24 37.8356C24.2119 37.3271 24.4316 36.693 24.645 35.925Z" fill="#E29578"/>
<path fill-rule="evenodd" clip-rule="evenodd" d="M7.58272 31.3914C7.50071 31.2095 7.42163 31.026 7.34555 30.841C7.29904 30.7279 7.25365 30.6142 7.2094 30.5C6.6005 28.9282 6.20595 27.2496 6.06161 25.5C6.02081 25.0054 6 24.5051 6 24C6 23.4952 6.02078 22.9952 6.06154 22.5009C6.20587 20.7513 6.6005 19.0718 7.2094 17.5C7.60535 16.4779 8.09195 15.5009 8.65932 14.579L8.70823 14.5C11.8854 9.39672 17.546 6 24 6C30.454 6 36.1146 9.39672 39.2918 14.5C39.8797 15.4444 40.3826 16.4472 40.7897 17.4977L40.7906 17.5C41.3774 19.0147 41.7651 20.6285 41.9217 22.3095C41.3142 22.763 40.5918 23.2379 39.7566 23.725C38.7396 24.3182 37.5822 24.9144 36.3059 25.5H35.9589C35.956 25.554 35.9528 25.608 35.9495 25.6618C34.9694 26.1024 33.9226 26.5363 32.8184 26.9577C32.8778 26.4807 32.9233 25.9945 32.9539 25.5H28.9829C28.9607 26.4685 28.9172 27.4152 28.8541 28.3341C27.8569 28.6485 26.8285 28.9502 25.7739 29.236C25.8795 28.0512 25.9508 26.8005 25.9821 25.5H22.0179C22.0568 27.1182 22.1578 28.6591 22.3095 30.0922C17.7907 31.1002 13.6725 31.5875 10.4665 31.5733C9.36822 31.5684 8.40373 31.5045 7.58272 31.3914ZM19.0171 25.5C19.0572 27.2496 19.1668 28.9282 19.3359 30.5H15.9199C15.4627 28.9719 15.1568 27.29 15.0461 25.5H19.0171ZM12.0411 25.5C12.1373 27.2496 12.4003 28.9282 12.8063 30.5H10.4777C9.73653 28.961 9.2504 27.2761 9.07406 25.5H12.0411ZM10.4777 17.5C9.73653 19.039 9.2504 20.7239 9.07406 22.5H12.0411C12.1373 20.7504 12.4003 19.0718 12.8063 17.5H10.4777ZM12.3912 14.5C13.1836 13.5329 14.0945 12.6665 15.1017 11.9232C14.6205 12.7205 14.1862 13.5827 13.8055 14.5H12.3912ZM17.1035 14.5C17.3846 13.9426 17.6883 13.4201 18.0109 12.9362C18.8946 11.6106 19.8644 10.6423 20.8578 9.99792C20.4233 11.2632 20.0488 12.7853 19.7523 14.5H17.1035ZM15.9199 17.5H19.3359C19.1668 19.0718 19.0572 20.7504 19.0171 22.5H15.0461C15.1568 20.71 15.4627 19.0281 15.9199 17.5ZM22.3543 17.5C22.1776 19.0471 22.0605 20.7271 22.0179 22.5H25.9821C25.9395 20.7271 25.8224 19.0471 25.6457 17.5H22.3543ZM28.6641 17.5C28.8332 19.0718 28.9428 20.7504 28.9829 22.5H32.9539C32.8432 20.71 32.5373 19.0281 32.0801 17.5H28.6641ZM30.8965 14.5H28.2477C27.9512 12.7853 27.5767 11.2632 27.1422 9.99792C28.1356 10.6423 29.1054 11.6106 29.9891 12.9362C30.3117 13.4201 30.6154 13.9426 30.8965 14.5ZM35.1937 17.5C35.5997 19.0718 35.8627 20.7504 35.9589 22.5H38.9259C38.7496 20.7239 38.2635 19.039 37.5223 17.5H35.1937ZM35.6088 14.5H34.1945C33.8138 13.5827 33.3795 12.7205 32.8983 11.9232C33.9055 12.6665 34.8164 13.5329 35.6088 14.5ZM22.8004 14.5C22.9655 13.6188 23.1518 12.8067 23.355 12.075C23.5684 11.307 23.7881 10.6729 24 10.1644C24.2119 10.6729 24.4316 11.307 24.645 12.075C24.8482 12.8067 25.0345 13.6188 25.1996 14.5H22.8004Z" fill="#E29578"/>
<path d="M42.3592 16.0561C43.2784 16.3923 43.4041 16.7149 43.4123 16.7454C43.4211 16.7783 43.4813 17.1737 42.6842 18.0532C41.9408 18.8735 40.6989 19.8243 38.9794 20.8273C35.5597 22.822 30.5529 24.8498 24.7755 26.3978C18.9981 27.9459 13.6482 28.6931 9.68929 28.6755C7.6987 28.6667 6.14774 28.4642 5.09376 28.1255C3.96371 27.7624 3.81815 27.3898 3.80933 27.3569C3.80227 27.3306 3.76225 27.0717 4.156 26.5179C4.0524 25.6932 3.99902 24.8529 3.99902 24C3.99902 23.4809 4.01881 22.9663 4.05766 22.4571C3.38186 22.9776 2.79449 23.5049 2.31449 24.0345C1.3325 25.118 0.491547 26.5659 0.911556 28.1334C1.33157 29.7009 2.7838 30.5343 4.17598 30.9817C5.64423 31.4535 7.53994 31.666 9.67593 31.6755C13.9702 31.6946 19.5931 30.8923 25.552 29.2956C31.5108 27.6989 36.7816 25.5823 40.4909 23.4186C42.336 22.3424 43.8715 21.2105 44.9071 20.0678C45.8891 18.9843 46.7301 17.5364 46.3101 15.9689C45.8901 14.4014 44.4378 13.568 43.0456 13.1206C42.2794 12.8744 41.3967 12.6988 40.4242 12.5858C41.1785 13.6693 41.8284 14.8309 42.3592 16.0561Z" fill="#02363D"/>
</svg>
